<svg width="105" height="286" viewBox="0 0 105 286" fill="none" xmlns="http://www.w3.org/2000/svg">
<path fill-rule="evenodd" clip-rule="evenodd" d="M43.7984 193.579C37.6831 178.137 23.9139 167.73 17.6347 152.354C9.88925 133.386 -4.20151 113.039 3.10462 93.9261C10.3903 74.8667 35.9512 71.8855 52.7931 60.3786C69.7048 48.8241 83.2932 33.7551 102.313 26.1442C128.719 15.5777 161.83 -10.0846 183.916 7.90872C207.411 27.0507 184.155 66.8776 189.009 96.7763C192.053 115.529 204.692 130.813 206.931 149.677C209.694 172.957 214.608 197.882 203.454 218.475C191.632 240.305 168.283 252.83 145.6 262.919C120.899 273.905 90.106 294.087 67.7264 278.844C42.8174 261.878 54.8936 221.596 43.7984 193.579Z" stroke="#FFD0E0" stroke-width="2"/>
</svg>
