<svg width="60" height="247" viewBox="0 0 60 247" fill="none" xmlns="http://www.w3.org/2000/svg">
<path fill-rule="evenodd" clip-rule="evenodd" d="M-78.612 176.8C-85.8066 164.862 -98.6413 158.149 -105.962 146.288C-114.993 131.657 -129.467 116.76 -126.058 99.9297C-122.659 83.1468 -101.912 77.1493 -89.5601 65.2986C-77.1566 53.3988 -67.9894 39.0487 -53.2964 30.1222C-32.8976 17.7292 -9.03246 -8.08568 11.734 3.75889C33.8262 16.3596 20.0751 52.5386 28.2217 76.6176C33.3312 91.7199 45.9037 102.626 50.3621 117.932C55.8643 136.822 63.373 156.775 56.9844 175.361C50.2122 195.064 32.6144 208.656 15.2313 220.14C-3.69858 232.645 -26.4009 253.603 -47.031 244.076C-69.9928 233.471 -65.5589 198.46 -78.612 176.8Z" fill="#FFECF2"/>
</svg>
