<svg width="77" height="284" viewBox="0 0 77 284" fill="none" xmlns="http://www.w3.org/2000/svg">
<path fill-rule="evenodd" clip-rule="evenodd" d="M-80.327 203.744C-88.1873 190.295 -102.531 182.927 -110.536 169.569C-120.41 153.091 -136.423 136.431 -132.204 117.173C-127.997 97.9698 -104.44 90.677 -90.2321 76.8977C-75.9654 63.0612 -65.2988 46.5033 -48.5126 36.0054C-25.2078 21.4308 2.3065 -8.51823 25.4926 4.52454C50.1589 18.4 33.8358 59.939 42.5035 87.2043C47.9399 104.305 61.895 116.459 66.5917 133.806C72.388 155.215 80.4264 177.792 72.8038 199.117C64.7234 221.723 44.5546 237.603 24.6748 251.075C3.026 265.745 -23.0683 290.133 -46.1515 279.728C-71.8436 268.147 -66.0662 228.144 -80.327 203.744Z" stroke="#FFD0E0" stroke-width="2"/>
</svg>
