<svg width="67" height="257" viewBox="0 0 67 257" fill="none" xmlns="http://www.w3.org/2000/svg">
<path fill-rule="evenodd" clip-rule="evenodd" d="M136.845 62.2275C146.626 72.7335 160.983 76.778 170.875 87.1797C183.077 100.01 200.821 111.955 200.953 129.638C201.085 147.272 181.448 157.713 171.512 172.274C161.535 186.896 155.338 203.3 142.423 215.41C124.493 232.223 105.914 263.297 82.4758 255.762C57.5412 247.747 63.7305 208.372 50.4168 185.833C42.0665 171.696 27.0846 163.37 19.3473 148.89C9.79851 131.021 -1.99779 112.504 0.500727 92.419C3.14927 71.1279 18.0027 53.6999 33.0866 38.4427C49.5128 21.8277 67.949 -4.10514 90.7588 1.12362C116.147 6.94336 119.099 43.1664 136.845 62.2275Z" fill="#FFECF2"/>
</svg>
