<svg width="64" height="252" viewBox="0 0 64 252" fill="none" xmlns="http://www.w3.org/2000/svg">
<path fill-rule="evenodd" clip-rule="evenodd" d="M-79.6229 177.257C-86.3831 164.595 -99.2234 157.004 -106.118 144.414C-114.622 128.883 -128.71 112.789 -124.304 95.6627C-119.911 78.5847 -98.253 73.527 -84.9156 62.0004C-71.5228 50.4261 -61.3271 36.1587 -45.7388 27.7646C-24.0971 16.111 1.82775 -9.16057 22.5507 4.13189C44.5965 18.2729 28.5185 54.7444 35.6082 79.9437C40.0548 95.7487 52.4011 107.638 56.1672 123.617C60.815 143.338 67.4693 164.26 59.9046 183.033C51.8856 202.934 33.0602 215.971 14.5686 226.85C-5.56851 238.698 -30.0375 259.037 -50.7442 248.135C-73.7912 236 -67.3578 200.231 -79.6229 177.257Z" fill="#FFECF2"/>
</svg>
