<svg width="80" height="294" viewBox="0 0 80 294" fill="none" xmlns="http://www.w3.org/2000/svg">
<path fill-rule="evenodd" clip-rule="evenodd" d="M-87.3973 206.449C-95.2196 191.797 -110.077 183.014 -118.055 168.446C-127.895 150.476 -144.196 131.853 -139.098 112.036C-134.014 92.2753 -108.954 86.423 -93.5215 73.0857C-78.0247 59.693 -66.2273 43.1842 -48.1901 33.4715C-23.1485 19.987 6.84908 -9.25462 30.8275 6.12607C56.3368 22.4887 37.733 64.6897 45.9364 93.8478C51.0816 112.136 65.3674 125.893 69.7251 144.383C75.1031 167.201 82.8029 191.41 74.0497 213.133C64.7709 236.159 42.9881 251.244 21.5915 263.833C-1.70913 277.542 -30.0222 301.077 -53.9818 288.461C-80.6495 274.421 -73.2054 233.032 -87.3973 206.449Z" stroke="#FFD0E0" stroke-width="2"/>
</svg>
