<svg width="90" height="245" viewBox="0 0 90 245" fill="none" xmlns="http://www.w3.org/2000/svg">
<path fill-rule="evenodd" clip-rule="evenodd" d="M37.9015 166.345C32.6164 152.999 20.7167 144.005 15.29 130.716C8.59616 114.324 -3.58151 96.7394 2.73267 80.2214C9.02916 63.7497 31.1197 61.1732 45.675 51.2287C60.2906 41.2429 72.0341 28.2198 88.4715 21.6422C111.292 12.5103 139.908 -9.66784 158.995 5.88254C179.301 22.4256 159.202 56.8452 163.397 82.6846C166.028 98.891 176.951 112.1 178.886 128.403C181.274 148.523 185.52 170.063 175.881 187.86C165.663 206.726 145.485 217.551 125.881 226.27C104.534 235.765 77.9219 253.207 58.5808 240.033C37.0537 225.37 47.4903 190.558 37.9015 166.345Z" fill="#FFECF2"/>
</svg>
