<svg xmlns="http://www.w3.org/2000/svg" version="1.1" xmlns:xlink="http://www.w3.org/1999/xlink" xmlns:svgjs="http://svgjs.com/svgjs" width="512" height="512" x="0" y="0" viewBox="0 0 24 24" style="enable-background:new 0 0 512 512" xml:space="preserve" fill-rule="evenodd" class="">
   <g>
      <path d="M14.182 13.728a.752.752 0 0 1-.91-.546.752.752 0 0 1 .546-.91l7.243-1.81a.25.25 0 0 0 .189-.243V7a.25.25 0 0 0-.25-.25H3a.25.25 0 0 0-.25.25v3.219a.25.25 0 0 0 .189.243l7.243 1.81a.752.752 0 0 1 .546.91.752.752 0 0 1-.91.546l-7.242-1.811a1.75 1.75 0 0 1-1.326-1.698V7c0-.464.184-.909.513-1.237A1.746 1.746 0 0 1 3 5.25h18c.464 0 .909.184 1.237.513.329.328.513.773.513 1.237v3.219a1.75 1.75 0 0 1-1.326 1.698z" fill="#FC85B4" data-original="#FC85B4" class=""></path>
      <path d="M1.75 11.5a.75.75 0 0 1 1.5 0V19c0 .69.56 1.25 1.25 1.25h15c.69 0 1.25-.56 1.25-1.25v-7.5a.75.75 0 0 1 1.5 0V19a2.75 2.75 0 0 1-2.75 2.75h-15A2.75 2.75 0 0 1 1.75 19zM8.25 6a.75.75 0 0 1-1.5 0V4c0-.967.784-1.75 1.75-1.75h7c.966 0 1.75.783 1.75 1.75v2a.75.75 0 0 1-1.5 0V4a.25.25 0 0 0-.25-.25h-7a.25.25 0 0 0-.25.25z" fill="#FC85B4" data-original="#FC85B4" class=""></path>
      <path d="M14.75 11.5V15a.75.75 0 0 1-.75.75h-4a.75.75 0 0 1-.75-.75v-3.5a.75.75 0 0 1 .75-.75h4a.75.75 0 0 1 .75.75zm-1.5.75h-2.5v2h2.5z" fill="#FC85B4" data-original="#FC85B4" class=""></path>
   </g>
</svg>