<svg xmlns="http://www.w3.org/2000/svg" version="1.1" xmlns:xlink="http://www.w3.org/1999/xlink" xmlns:svgjs="http://svgjs.com/svgjs" width="512" height="512" x="0" y="0" viewBox="0 0 512 512" style="enable-background:new 0 0 512 512" xml:space="preserve" class="">
   <g>
      <path d="M512 256.013a15 15 0 0 0-7.05-12.734l-51.755-32.347 51.731-32.198a15 15 0 0 0 .038-25.445l-241-151a14.999 14.999 0 0 0-15.928 0l-241 151a14.998 14.998 0 0 0 .038 25.445l51.731 32.198L7.05 243.279a15 15 0 0 0 .024 25.455l51.731 32.198L7.05 333.279a15.002 15.002 0 0 0-.014 25.431l241 151a14.999 14.999 0 0 0 15.928 0l241-151a15.002 15.002 0 0 0-.014-25.431l-51.755-32.347 51.731-32.198A15.001 15.001 0 0 0 512 256.013zM43.319 165.956 256 32.701l212.681 133.256L256 298.331 43.319 165.956zm425.405 180.06L256 479.299 43.276 346.016l43.89-27.431 160.908 100.15c4.85 3.02 11 3.021 15.852 0l160.908-100.15 43.89 27.431zM256 388.331 43.345 255.974l43.822-27.389 160.908 100.15c4.85 3.02 11 3.021 15.852 0l160.908-100.15 43.822 27.389L256 388.331z" fill="#FC85B4" data-original="#FC85B4" class=""></path>
   </g>
</svg>